# xmcd CD database file
#
# Track frame offsets:
#	150
#	20805
#	49655
#	67086
#	96675
#	127838
#	154644
#	185576
#	203360
#
# Disc length: 3122 seconds
#
# Revision: 0
# Processed by: cddbd v1.5.2PL0 Copyright (c) Steve Scherf et al.
# Submitted via: CDex 1.51
#
DISCID=7a0c3009
DTITLE=CO2 Jazz - Jazz To The World
DYEAR=2005
DGENRE=Jazz
TTITLE0=Angels We Have Heard On High
TTITLE1=One Small Child
TTITLE2=Come, Thou Long-Expected Jesus
TTITLE3=God Rest Ye Merry, Gentlemen
TTITLE4=O Come, O Come, Emmanuel
TTITLE5=Silent Night
TTITLE6=Do You Hear What I Hear
TTITLE7=While Shepherds Watched Their Flocks
TTITLE8=What Child Is This
EXTD=YEAR: 2005
EXTT0=
EXTT1=
EXTT2=
EXTT3=
EXTT4=
EXTT5=
EXTT6=
EXTT7=
EXTT8=
PLAYORDER=
